<svg width="230" height="40" viewBox="0 0 230 40" fill="none" xmlns="http://www.w3.org/2000/svg">
  <rect width="230" height="40"/>
  <path d="M221.783 31.2513C221.074 31.2513 220.325 31.1642 219.535 30.9899C218.744 30.8447 217.981 30.6268 217.245 30.3363C216.509 30.0168 215.869 29.6538 215.324 29.2471C214.806 28.8114 214.479 28.3322 214.343 27.8093C214.234 27.5189 214.193 27.2429 214.22 26.9815C214.247 26.6911 214.329 26.4006 214.465 26.1101C214.602 25.7906 214.806 25.4711 215.079 25.1516C215.324 24.8321 215.569 24.6578 215.814 24.6288C216.087 24.5707 216.428 24.6578 216.836 24.8902C217.191 25.0354 217.572 25.2242 217.981 25.4566C218.417 25.689 218.853 25.9213 219.289 26.1537C219.753 26.3861 220.216 26.5749 220.679 26.7201C221.17 26.8653 221.647 26.9379 222.11 26.9379C223.118 26.9379 223.922 26.7637 224.522 26.4151C225.122 26.0375 225.421 25.5147 225.421 24.8466C225.421 24.469 225.326 24.135 225.135 23.8445C224.944 23.5541 224.685 23.3217 224.358 23.1474C224.059 22.9441 223.691 22.7698 223.255 22.6246C222.846 22.4503 222.396 22.3051 221.906 22.1889C221.442 22.0437 220.952 21.8839 220.434 21.7096C219.753 21.5063 219.071 21.2594 218.39 20.969C217.709 20.6785 217.095 20.3009 216.55 19.8362C216.032 19.3714 215.61 18.7905 215.283 18.0934C214.956 17.3963 214.792 16.5249 214.792 15.4792C214.792 14.1721 215.079 13.0684 215.651 12.168C216.25 11.2385 217.109 10.5269 218.226 10.0331C219.344 9.53928 220.693 9.29239 222.274 9.29239C222.819 9.29239 223.336 9.33596 223.827 9.4231C224.345 9.51024 224.835 9.64094 225.299 9.81522C225.789 9.96045 226.253 10.1493 226.689 10.3816C227.152 10.614 227.588 10.8754 227.997 11.1659C228.678 11.5725 229.032 12.0518 229.06 12.6037C229.087 13.1265 228.896 13.6929 228.487 14.3029C228.188 14.7095 227.888 15 227.588 15.1742C227.288 15.3195 226.975 15.3195 226.648 15.1742C226.212 14.9419 225.735 14.695 225.217 14.4336C224.726 14.1431 224.209 13.8962 223.663 13.6929C223.146 13.4896 222.601 13.3879 222.028 13.3879C221.483 13.3879 220.993 13.475 220.557 13.6493C220.12 13.8236 219.793 14.0705 219.575 14.39C219.357 14.7095 219.248 15.0871 219.248 15.5228C219.248 15.9294 219.357 16.2635 219.575 16.5249C219.793 16.7863 220.08 17.0041 220.434 17.1784C220.788 17.3527 221.211 17.5125 221.701 17.6577C222.192 17.7739 222.71 17.8901 223.255 18.0062C224.018 18.1805 224.795 18.3984 225.585 18.6598C226.375 18.9212 227.097 19.2843 227.752 19.749C228.433 20.2138 228.978 20.8382 229.387 21.6225C229.796 22.3777 230 23.3653 230 24.5852C230 26.7056 229.264 28.3467 227.792 29.5085C226.348 30.6704 224.345 31.2513 221.783 31.2513Z" fill="black"/>
  <path d="M198.703 39.573C197.831 39.1664 197.326 38.7016 197.19 38.1788C197.054 37.685 197.176 37.017 197.558 36.1746L208.105 10.9916C208.487 10.0621 208.896 9.51022 209.332 9.33595C209.768 9.13262 210.435 9.23428 211.335 9.64093C212.18 10.0476 212.67 10.4978 212.806 10.9916C212.97 11.4854 212.875 12.1534 212.52 12.9958L201.891 38.3095C201.537 39.239 201.142 39.7763 200.706 39.9216C200.27 40.0959 199.602 39.9797 198.703 39.573ZM202.505 28.8985L193.061 13.4315C192.571 12.6472 192.366 11.9937 192.448 11.4708C192.557 10.948 192.993 10.4397 193.756 9.94591C194.601 9.39404 195.255 9.17619 195.718 9.29238C196.209 9.40856 196.7 9.8733 197.19 10.6866L204.671 23.1038L202.505 28.8985Z" fill="black"/>
  <path d="M187.918 30.9027C187.128 30.9027 186.542 30.743 186.16 30.4234C185.779 30.1039 185.588 29.6682 185.588 29.1164L185.874 27.6786C185.656 28.0562 185.288 28.5064 184.77 29.0292C184.253 29.523 183.571 29.9732 182.726 30.3799C181.881 30.7575 180.859 30.9463 179.66 30.9463C178.379 30.9463 177.167 30.6703 176.022 30.1185C174.905 29.5375 173.91 28.7533 173.038 27.7657C172.193 26.7491 171.511 25.6018 170.994 24.3237C170.503 23.0167 170.258 21.6224 170.258 20.1411C170.258 18.7178 170.503 17.3817 170.994 16.1327C171.511 14.8547 172.206 13.7219 173.079 12.7343C173.951 11.7467 174.945 10.977 176.063 10.4251C177.207 9.84422 178.407 9.55376 179.66 9.55376C180.778 9.55376 181.718 9.71352 182.481 10.033C183.271 10.3525 183.939 10.7592 184.484 11.253C185.029 11.7177 185.479 12.2115 185.833 12.7343L185.588 11.4708C185.588 10.8318 185.779 10.3525 186.16 10.033C186.542 9.68447 187.141 9.51019 187.959 9.51019C188.722 9.51019 189.267 9.6409 189.594 9.90232C189.921 10.1347 190.126 10.4687 190.207 10.9044C190.289 11.3111 190.33 11.7758 190.33 12.2986V28.245C190.33 28.7388 190.289 29.189 190.207 29.5956C190.126 30.0023 189.908 30.3218 189.553 30.5542C189.226 30.7865 188.681 30.9027 187.918 30.9027ZM180.396 25.8487C181.323 25.8487 182.154 25.6018 182.89 25.108C183.626 24.6142 184.212 23.9461 184.648 23.1038C185.111 22.2324 185.343 21.2739 185.343 20.2282C185.343 19.0954 185.111 18.1079 184.648 17.2655C184.184 16.4232 183.571 15.7696 182.808 15.3049C182.072 14.8111 181.241 14.5642 180.314 14.5642C179.306 14.5642 178.407 14.8256 177.616 15.3485C176.826 15.8423 176.199 16.5248 175.736 17.3962C175.3 18.2386 175.082 19.1971 175.082 20.2718C175.082 21.3175 175.313 22.2615 175.777 23.1038C176.24 23.9461 176.867 24.6142 177.657 25.108C178.475 25.6018 179.388 25.8487 180.396 25.8487Z" fill="black"/>
  <path d="M148.853 30.9463C148.308 30.9463 147.872 30.8301 147.545 30.5978C147.245 30.3945 147.014 30.133 146.85 29.8135C146.714 29.494 146.591 29.2036 146.482 28.9421L140.473 12.7344C140.309 12.1825 140.228 11.7178 140.228 11.3402C140.255 10.9626 140.391 10.643 140.636 10.3816C140.909 10.0912 141.304 9.84428 141.822 9.64096C142.694 9.26336 143.375 9.16169 143.866 9.33597C144.384 9.51025 144.765 10.004 145.011 10.8173L148.894 21.7968L152.41 11.2966C152.492 11.0352 152.614 10.7592 152.778 10.4688C152.941 10.1783 153.173 9.93142 153.473 9.72809C153.8 9.49572 154.236 9.37954 154.781 9.37954C155.353 9.37954 155.803 9.49572 156.13 9.72809C156.457 9.93142 156.702 10.1783 156.866 10.4688C157.057 10.7592 157.179 11.0352 157.234 11.2966L160.75 21.8839L164.47 11.2095C164.797 10.309 165.206 9.71357 165.696 9.42311C166.187 9.13265 166.854 9.16169 167.699 9.51025C168.462 9.8588 168.98 10.2945 169.253 10.8173C169.525 11.3111 169.498 11.9647 169.171 12.7779L163.121 28.9421C163.012 29.2326 162.875 29.5376 162.712 29.8571C162.576 30.1476 162.344 30.3945 162.017 30.5978C161.717 30.8301 161.308 30.9463 160.791 30.9463C160.245 30.9463 159.809 30.8447 159.482 30.6413C159.183 30.4671 158.951 30.2202 158.787 29.9007C158.624 29.5812 158.488 29.2471 158.379 28.8986L154.822 18.137L151.265 28.8986C151.102 29.3052 150.952 29.6683 150.816 29.9878C150.679 30.3073 150.461 30.5397 150.162 30.6849C149.862 30.8592 149.426 30.9463 148.853 30.9463Z" fill="black"/>
  <path d="M126.94 30.9898C126.204 30.9898 125.659 30.8591 125.305 30.5977C124.978 30.3653 124.773 30.0458 124.691 29.6391C124.61 29.2325 124.569 28.7823 124.569 28.2885V12.1243C124.569 11.6015 124.61 11.1512 124.691 10.7736C124.773 10.367 124.978 10.062 125.305 9.85869C125.659 9.62632 126.218 9.51013 126.981 9.51013C127.717 9.51013 128.248 9.6118 128.575 9.81512C128.929 10.0184 129.147 10.2799 129.229 10.5994C129.338 10.8898 129.393 11.1803 129.393 11.4708L129.066 12.255C129.202 12.0226 129.393 11.7467 129.638 11.4272C129.883 11.0786 130.21 10.7446 130.619 10.4251C131.028 10.0765 131.518 9.8006 132.091 9.59727C132.663 9.3649 133.344 9.24872 134.135 9.24872C134.462 9.24872 134.802 9.29229 135.157 9.37943C135.538 9.43752 135.906 9.53918 136.261 9.68441C136.642 9.8006 136.983 9.96035 137.283 10.1637C137.582 10.367 137.814 10.6139 137.978 10.9044C138.141 11.1658 138.223 11.4708 138.223 11.8193C138.223 12.7488 138.005 13.533 137.569 14.172C137.133 14.8111 136.615 15.1306 136.015 15.1306C135.606 15.1306 135.307 15.087 135.116 14.9999C134.925 14.9127 134.762 14.8111 134.625 14.6949C134.516 14.5787 134.339 14.477 134.094 14.3899C133.876 14.3028 133.522 14.2592 133.031 14.2592C132.622 14.2592 132.2 14.3318 131.764 14.477C131.355 14.6223 130.973 14.8401 130.619 15.1306C130.265 15.421 129.979 15.7986 129.761 16.2634C129.543 16.6991 129.434 17.2074 129.434 17.7883V28.3756C129.434 28.8694 129.393 29.3196 129.311 29.7263C129.229 30.1039 129.011 30.4089 128.657 30.6412C128.302 30.8736 127.73 30.9898 126.94 30.9898Z" fill="black"/>
  <path d="M117.603 30.9899C116.867 30.9899 116.322 30.8592 115.968 30.5978C115.613 30.3654 115.395 30.0604 115.314 29.6828C115.232 29.2762 115.191 28.826 115.191 28.3322V12.1244C115.191 11.6597 115.232 11.2385 115.314 10.8609C115.423 10.4543 115.641 10.1348 115.968 9.90239C116.322 9.67002 116.881 9.55383 117.644 9.55383C118.407 9.55383 118.952 9.67002 119.279 9.90239C119.633 10.1348 119.851 10.4543 119.933 10.8609C120.015 11.2676 120.056 11.7178 120.056 12.2116V28.3758C120.056 28.8695 120.015 29.3198 119.933 29.7264C119.851 30.104 119.633 30.409 119.279 30.6414C118.952 30.8737 118.393 30.9899 117.603 30.9899Z" fill="black"/>
  <path d="M108.473 30.9027C107.683 30.9027 107.097 30.743 106.715 30.4234C106.333 30.1039 106.143 29.6682 106.143 29.1164L106.429 27.6786C106.211 28.0562 105.843 28.5064 105.325 29.0292C104.807 29.523 104.126 29.9732 103.281 30.3799C102.436 30.7575 101.414 30.9463 100.215 30.9463C98.9341 30.9463 97.7213 30.6703 96.5766 30.1185C95.4592 29.5375 94.4645 28.7533 93.5924 27.7657C92.7475 26.7491 92.0662 25.6018 91.5483 24.3237C91.0578 23.0167 90.8125 21.6224 90.8125 20.1411C90.8125 18.7178 91.0578 17.3817 91.5483 16.1327C92.0662 14.8547 92.7611 13.7219 93.6333 12.7343C94.5054 11.7467 95.5001 10.977 96.6175 10.4251C97.7622 9.84422 98.9613 9.55376 100.215 9.55376C101.332 9.55376 102.273 9.71352 103.036 10.033C103.826 10.3525 104.494 10.7592 105.039 11.253C105.584 11.7177 106.034 12.2115 106.388 12.7343L106.143 11.4708C106.143 10.8318 106.333 10.3525 106.715 10.033C107.097 9.68447 107.696 9.51019 108.514 9.51019C109.277 9.51019 109.822 9.6409 110.149 9.90232C110.476 10.1347 110.68 10.4687 110.762 10.9044C110.844 11.3111 110.885 11.7758 110.885 12.2986V28.245C110.885 28.7388 110.844 29.189 110.762 29.5956C110.68 30.0023 110.462 30.3218 110.108 30.5542C109.781 30.7865 109.236 30.9027 108.473 30.9027ZM100.951 25.8487C101.877 25.8487 102.709 25.6018 103.445 25.108C104.18 24.6142 104.766 23.9461 105.202 23.1038C105.666 22.2324 105.897 21.2739 105.897 20.2282C105.897 19.0954 105.666 18.1079 105.202 17.2655C104.739 16.4232 104.126 15.7696 103.363 15.3049C102.627 14.8111 101.796 14.5642 100.869 14.5642C99.8607 14.5642 98.9613 14.8256 98.171 15.3485C97.3806 15.8423 96.7538 16.5248 96.2905 17.3962C95.8544 18.2386 95.6364 19.1971 95.6364 20.2718C95.6364 21.3175 95.8681 22.2615 96.3314 23.1038C96.7947 23.9461 97.4215 24.6142 98.2119 25.108C99.0295 25.6018 99.9425 25.8487 100.951 25.8487Z" fill="black"/>
  <path d="M85.557 30.9899C84.2216 30.9899 83.0769 30.8447 82.123 30.5542C81.1692 30.2638 80.3924 29.8135 79.7928 29.2036C79.1933 28.5936 78.7436 27.8093 78.4438 26.8508C78.1712 25.8633 78.035 24.7014 78.035 23.3653V4.89191C78.035 4.36907 78.0759 3.91886 78.1576 3.54126C78.2666 3.16366 78.4847 2.8732 78.8117 2.66987C79.166 2.4375 79.7111 2.32132 80.4469 2.32132C81.21 2.32132 81.7551 2.4375 82.0821 2.66987C82.4364 2.90224 82.6545 3.22175 82.7362 3.6284C82.8453 4.006 82.8998 4.42717 82.8998 4.89191V23.191C82.8998 23.801 82.9406 24.2948 83.0224 24.6724C83.1314 25.05 83.2813 25.3404 83.4721 25.5437C83.6901 25.718 83.9626 25.8487 84.2897 25.9359C84.644 25.994 85.0664 26.023 85.557 26.023C86.0748 26.023 86.5109 26.0666 86.8652 26.1537C87.2467 26.2409 87.5329 26.4587 87.7237 26.8073C87.9144 27.1268 88.0098 27.6641 88.0098 28.4193C88.0098 29.2326 87.8872 29.8281 87.6419 30.2057C87.4239 30.5542 87.1241 30.7721 86.7425 30.8592C86.3882 30.9463 85.993 30.9899 85.557 30.9899ZM76.3589 9.94594L80.5696 9.98951L86.2111 9.81524C86.6744 9.81524 87.0832 9.87333 87.4375 9.98951C87.819 10.0767 88.1188 10.309 88.3369 10.6866C88.5549 11.0352 88.6639 11.6161 88.6639 12.4294C88.6639 13.1846 88.5549 13.751 88.3369 14.1286C88.1188 14.5062 87.8327 14.7531 87.4784 14.8693C87.1241 14.9564 86.7153 15 86.252 15L80.774 14.9128L76.2362 14.9564C75.5549 14.9274 75.078 14.724 74.8054 14.3464C74.5601 13.9398 74.4375 13.2863 74.4375 12.3858C74.4375 11.5435 74.5874 10.9335 74.8872 10.5559C75.2142 10.1493 75.7048 9.94594 76.3589 9.94594Z" fill="black"/>
  <path d="M62.898 31.3822C61.6716 31.3822 60.5542 31.2225 59.5458 30.903C58.5647 30.5834 57.6926 30.1768 56.9295 29.683C56.1936 29.1892 55.5668 28.6809 55.049 28.1581C54.5311 27.6353 54.1496 27.156 53.9043 26.7203C53.55 26.1975 53.3183 25.7327 53.2093 25.3261C53.1003 24.9194 53.1276 24.5273 53.2911 24.1497C53.4819 23.7431 53.8225 23.3219 54.3131 22.8862C54.8037 22.4215 55.2534 22.1891 55.6622 22.1891C56.0982 22.1601 56.507 22.2908 56.8886 22.5812C57.2974 22.8717 57.6926 23.2783 58.0741 23.8012C58.7282 24.7306 59.464 25.3987 60.2817 25.8054C61.0993 26.183 61.9169 26.3718 62.7345 26.3718C63.7974 26.3718 64.724 26.2265 65.5143 25.9361C66.3047 25.6166 66.9179 25.1518 67.354 24.5418C67.8173 23.9319 68.0489 23.1476 68.0489 22.1891C68.0489 21.4049 67.8173 20.7658 67.354 20.2721C66.9179 19.7492 66.332 19.3135 65.5961 18.965C64.8603 18.5874 64.029 18.2533 63.1024 17.9629C62.203 17.6434 61.29 17.2948 60.3634 16.9172C59.7093 16.6848 59.0552 16.4089 58.4011 16.0894C57.7471 15.7408 57.1339 15.3487 56.5615 14.913C56.0165 14.4773 55.5259 13.969 55.0898 13.3881C54.681 12.7781 54.354 12.081 54.1087 11.2968C53.8634 10.5125 53.7408 9.59758 53.7408 8.55192C53.7408 6.89629 54.1223 5.44398 54.8854 4.19499C55.6485 2.91696 56.7114 1.91486 58.0741 1.18871C59.4368 0.433509 60.9902 0.0559082 62.7345 0.0559082C63.8519 0.0559082 64.8466 0.172093 65.7188 0.404463C66.6181 0.607786 67.3812 0.883724 68.0081 1.23228C68.6621 1.55179 69.1936 1.88582 69.6024 2.23437C70.0385 2.55388 70.3519 2.82982 70.5426 3.06219C71.1695 3.73025 71.5102 4.29665 71.5647 4.76139C71.6464 5.19708 71.4011 5.79253 70.8288 6.54773C70.2565 7.33198 69.6978 7.76767 69.1527 7.85481C68.6349 7.9129 68.0489 7.68053 67.3949 7.1577C66.9588 6.66392 66.5227 6.27179 66.0867 5.98133C65.6506 5.66182 65.1601 5.42945 64.615 5.28422C64.0972 5.13899 63.4567 5.06638 62.6936 5.06638C62.1485 5.06638 61.6171 5.15351 61.0993 5.32779C60.6087 5.47302 60.1863 5.70539 59.832 6.0249C59.4777 6.31536 59.1915 6.67844 58.9735 7.11413C58.7827 7.54982 58.6873 8.04361 58.6873 8.59549C58.6873 9.35069 58.8781 9.97518 59.2596 10.469C59.6684 10.9337 60.2135 11.3258 60.8949 11.6453C61.5762 11.9358 62.3393 12.2117 63.1842 12.4732C64.029 12.7346 64.8875 13.0105 65.7596 13.301C66.659 13.6205 67.5447 13.9981 68.4169 14.4338C69.289 14.8695 70.0657 15.4213 70.7471 16.0894C71.4284 16.7284 71.9735 17.5417 72.3823 18.5293C72.7911 19.4878 72.9955 20.6642 72.9955 22.0584C72.9955 23.6559 72.7093 25.0502 72.137 26.241C71.5647 27.4319 70.7879 28.405 69.8068 29.1602C68.8257 29.9154 67.7355 30.4673 66.5364 30.8158C65.3372 31.1934 64.1244 31.3822 62.898 31.3822Z" fill="black"/>
  <rect x="114.809" width="5.05451" height="5.48708" rx="2" fill="black"/>
  <rect y="23" width="39.3658" height="8" rx="4" fill="#FF8811"/>
  <rect x="7.87317" y="12" width="31.4926" height="8" rx="4" fill="#009FB7"/>
  <rect x="15.7463" y="1" width="23.6195" height="8" rx="4" fill="#DB2763"/>
  </svg>